<?xml version="1.0" encoding="UTF-8"?>
<!DOCTYPE svg PUBLIC "-//W3C//DTD SVG 1.1//EN" "http://www.w3.org/Graphics/SVG/1.1/DTD/svg11.dtd">
<svg xmlns="http://www.w3.org/2000/svg" version="1.1" width="500px" height="500px" style="shape-rendering:geometricPrecision; text-rendering:geometricPrecision; image-rendering:optimizeQuality; fill-rule:evenodd; clip-rule:evenodd" xmlns:xlink="http://www.w3.org/1999/xlink">
<g><path style="opacity:0.987" fill="#ececec" d="M 272.5,208.5 C 277.23,204.773 281.23,200.44 284.5,195.5C 312.145,167.016 341.478,140.516 372.5,116C 384.315,106.924 396.648,98.5906 409.5,91C 420.014,85.4942 431.014,81.1609 442.5,78C 457.057,75.6066 470.724,77.9399 483.5,85C 493.255,93.344 498.588,103.844 499.5,116.5C 499.5,119.167 499.5,121.833 499.5,124.5C 498.508,130.81 497.008,137.143 495,143.5C 479.093,180.554 464.759,218.22 452,256.5C 445.522,263.745 437.356,266.911 427.5,266C 453.629,284.424 459.796,308.257 446,337.5C 433.692,369.696 412.858,394.529 383.5,412C 370.602,418.641 356.936,421.308 342.5,420C 329.188,417.009 317.188,411.343 306.5,403C 291.447,391.504 277.781,378.671 265.5,364.5C 265.631,363.624 265.298,362.957 264.5,362.5C 263.614,363.325 263.281,364.325 263.5,365.5C 262.717,376.251 260.217,386.584 256,396.5C 253.068,401.373 249.735,401.706 246,397.5C 240.639,386.516 237.805,374.849 237.5,362.5C 237.655,359.147 236.988,358.814 235.5,361.5C 217.515,385.325 195.182,403.825 168.5,417C 152.297,422.082 136.297,421.415 120.5,415C 95.1063,402.273 75.6063,383.44 62,358.5C 53.0765,342.73 47.5765,325.897 45.5,308C 46.3403,291.483 53.3403,278.316 66.5,268.5C 69.1864,267.012 68.8531,266.345 65.5,266.5C 57.874,266.46 51.7073,263.46 47,257.5C 34.2972,218.054 19.6306,179.388 3,141.5C -0.333333,128.5 -0.333333,115.5 3,102.5C 8.98427,87.9223 19.8176,79.7556 35.5,78C 49.1229,75.9971 62.1229,77.9971 74.5,84C 93.229,93.4163 110.896,104.416 127.5,117C 165.523,148.351 201.689,181.851 236,217.5C 238.46,213.575 240.627,209.575 242.5,205.5C 241.403,181.803 231.736,162.637 213.5,148C 211.222,147.014 208.889,146.18 206.5,145.5C 205.152,143.389 205.485,141.555 207.5,140C 210.017,139.743 212.35,140.41 214.5,142C 229.915,152.611 240.082,167.111 245,185.5C 246.093,191.484 247.093,197.484 248,203.5C 249.049,205.107 250.549,205.773 252.5,205.5C 252.392,201.753 252.892,198.086 254,194.5C 257.211,183.534 261.211,172.868 266,162.5C 272.868,152.959 281.535,145.626 292,140.5C 295.072,141.447 296.072,143.447 295,146.5C 281.393,152.107 271.726,161.774 266,175.5C 262.018,185.13 259.518,195.13 258.5,205.5C 260.292,209.083 262.125,212.75 264,216.5C 266.749,213.579 269.583,210.912 272.5,208.5 Z M 252.5,389.5 C 252.5,390.167 252.5,390.833 252.5,391.5C 251.609,392.11 250.609,392.443 249.5,392.5C 249.443,391.391 249.11,390.391 248.5,389.5C 248.929,386.253 250.262,386.253 252.5,389.5 Z"/></g>
<g><path style="opacity:1" fill="#000000" d="M 252.5,389.5 C 250.262,386.253 248.929,386.253 248.5,389.5C 244.547,375.216 242.047,360.549 241,345.5C 224.007,370.163 202.84,390.329 177.5,406C 156.321,417.531 135.321,417.198 114.5,405C 93.4651,391.966 77.2985,374.466 66,352.5C 60.2766,340.996 55.9433,328.996 53,316.5C 50.5569,296.254 58.0569,280.754 75.5,270C 82.4142,266.474 89.4142,263.14 96.5,260C 85.8518,260.443 75.1851,260.443 64.5,260C 60.4563,259.727 56.9563,258.227 54,255.5C 40.3775,215.631 25.3775,176.298 9,137.5C 1.75398,97.4136 18.254,80.247 58.5,86C 68.2975,88.8983 77.6309,92.8983 86.5,98C 117.506,117.995 146.506,140.661 173.5,166C 196.333,187.5 218.5,209.667 240,232.5C 241.757,227.963 243.09,223.296 244,218.5C 246.488,213.202 250.155,212.202 255,215.5C 257.831,220.798 259.497,226.465 260,232.5C 296.372,192.454 335.538,155.621 377.5,122C 389.156,113.504 401.156,105.504 413.5,98C 425.715,90.0942 439.048,85.9276 453.5,85.5C 481.417,85.6429 493.917,99.6429 491,127.5C 490.66,131.558 489.993,135.558 489,139.5C 472.892,176.823 458.559,214.823 446,253.5C 444.749,256.381 442.583,258.214 439.5,259C 432.99,261.102 426.323,262.435 419.5,263C 419.043,263.414 418.709,263.914 418.5,264.5C 426.482,270.648 433.648,277.648 440,285.5C 446.598,296.412 448.264,308.079 445,320.5C 434.847,356.349 414.347,384.516 383.5,405C 363.183,416.737 342.85,417.07 322.5,406C 297.84,390.676 277.007,371.176 260,347.5C 258.903,357.854 257.569,368.187 256,378.5C 255.342,382.445 254.175,386.112 252.5,389.5 Z M 252.5,389.5 C 252.5,390.167 252.5,390.833 252.5,391.5C 251.609,392.11 250.609,392.443 249.5,392.5C 249.443,391.391 249.11,390.391 248.5,389.5C 248.929,386.253 250.262,386.253 252.5,389.5 Z"/></g>
<g><path style="opacity:0.565" fill="#676767" d="M 284.5,195.5 C 281.23,200.44 277.23,204.773 272.5,208.5C 275.77,203.56 279.77,199.227 284.5,195.5 Z"/></g>
<g><path style="opacity:1" fill="#fa66c1" d="M 159.5,254.5 C 159.333,265.505 159.5,276.505 160,287.5C 160.183,290.365 160.683,293.031 161.5,295.5C 161.5,298.167 161.5,300.833 161.5,303.5C 162.104,327.29 161.437,350.957 159.5,374.5C 157.44,375.811 155.274,375.811 153,374.5C 151.711,371.649 151.211,368.649 151.5,365.5C 143.971,364.765 136.304,363.932 128.5,363C 122.971,360.019 117.638,356.852 112.5,353.5C 112.167,352.833 111.833,352.167 111.5,351.5C 108.996,343.517 108.996,335.517 111.5,327.5C 113.836,322.651 117.169,318.484 121.5,315C 127.097,311.369 133.097,308.535 139.5,306.5C 143.857,306.414 148.19,306.08 152.5,305.5C 150.529,287.814 150.196,270.148 151.5,252.5C 154.718,250.816 157.385,251.483 159.5,254.5 Z"/></g>
<g><path style="opacity:0.247" fill="#5b5b5b" d="M 65.5,266.5 C 68.8531,266.345 69.1864,267.012 66.5,268.5C 66.1667,267.833 65.8333,267.167 65.5,266.5 Z"/></g>
<g><path style="opacity:1" fill="#af578c" d="M 159.5,254.5 C 160.588,267.991 161.254,281.657 161.5,295.5C 160.683,293.031 160.183,290.365 160,287.5C 159.5,276.505 159.333,265.505 159.5,254.5 Z"/></g>
<g><path style="opacity:1" fill="#c55c9b" d="M 151.5,252.5 C 150.196,270.148 150.529,287.814 152.5,305.5C 148.19,306.08 143.857,306.414 139.5,306.5C 142.544,304.989 145.878,304.322 149.5,304.5C 149.651,290.488 149.318,276.488 148.5,262.5C 148.667,259.5 148.833,256.5 149,253.5C 149.671,252.748 150.504,252.414 151.5,252.5 Z"/></g>
<g><path style="opacity:1" fill="#060103" d="M 146.5,316.5 C 147.833,316.5 149.167,316.5 150.5,316.5C 150.177,322.69 150.51,328.69 151.5,334.5C 151.5,341.167 151.5,347.833 151.5,354.5C 142.729,354.218 134.062,353.218 125.5,351.5C 117.981,343.991 117.648,336.158 124.5,328C 127.734,325.252 131.068,322.752 134.5,320.5C 138.302,318.601 142.302,317.267 146.5,316.5 Z"/></g>
<g><path style="opacity:1" fill="#5a1c3f" d="M 146.5,316.5 C 147.919,315.549 149.585,315.216 151.5,315.5C 151.5,321.833 151.5,328.167 151.5,334.5C 150.51,328.69 150.177,322.69 150.5,316.5C 149.167,316.5 147.833,316.5 146.5,316.5 Z"/></g>
<g><path style="opacity:1" fill="#cd62a2" d="M 111.5,327.5 C 108.996,335.517 108.996,343.517 111.5,351.5C 107.255,345.079 106.421,338.079 109,330.5C 109.377,329.058 110.21,328.058 111.5,327.5 Z"/></g>
<g><path style="opacity:1" fill="#b3548c" d="M 161.5,303.5 C 163.29,325.647 163.79,347.981 163,370.5C 162.34,372.324 161.173,373.657 159.5,374.5C 161.437,350.957 162.104,327.29 161.5,303.5 Z"/></g>
<g><path style="opacity:1" fill="#d864a8" d="M 134.5,320.5 C 131.068,322.752 127.734,325.252 124.5,328C 117.648,336.158 117.981,343.991 125.5,351.5C 122.095,351.488 119.928,349.821 119,346.5C 118.833,343.833 118.667,341.167 118.5,338.5C 118.562,335.387 119.229,332.554 120.5,330C 119.672,329.085 118.672,328.419 117.5,328C 122.332,327.676 126.332,325.676 129.5,322C 131.025,320.991 132.692,320.491 134.5,320.5 Z"/></g>
<g><path style="opacity:1" fill="#da66ab" d="M 112.5,353.5 C 117.638,356.852 122.971,360.019 128.5,363C 136.304,363.932 143.971,364.765 151.5,365.5C 143.097,365.87 134.764,365.37 126.5,364C 120.469,362.168 115.802,358.668 112.5,353.5 Z"/></g>
<g><path style="opacity:0.137" fill="#2b2b2b" d="M 237.5,362.5 C 236.833,362.167 236.167,361.833 235.5,361.5C 236.988,358.814 237.655,359.147 237.5,362.5 Z"/></g>
<g><path style="opacity:0.267" fill="#494949" d="M 265.5,364.5 C 264.833,364.833 264.167,365.167 263.5,365.5C 263.281,364.325 263.614,363.325 264.5,362.5C 265.298,362.957 265.631,363.624 265.5,364.5 Z"/></g>
<g><path style="opacity:0.741" fill="#565656" d="M 252.5,391.5 C 251.947,393.552 250.947,393.885 249.5,392.5C 250.609,392.443 251.609,392.11 252.5,391.5 Z"/></g>
</svg>
