<?xml version="1.0" standalone="no"?>
<!DOCTYPE svg PUBLIC "-//W3C//DTD SVG 20010904//EN"
 "http://www.w3.org/TR/2001/REC-SVG-20010904/DTD/svg10.dtd">
<svg version="1.0" xmlns="http://www.w3.org/2000/svg"
 width="1080.000000pt" height="1080.000000pt" viewBox="0 0 1080.000000 1080.000000"
 preserveAspectRatio="xMidYMid meet">

<g transform="translate(0.000000,1080.000000) scale(0.100000,-0.100000)"
fill="#000000" stroke="none">
<path d="M0 5400 l0 -5400 5400 0 5400 0 0 5400 0 5400 -5400 0 -5400 0 0
-5400z m3400 2288 c60 -31 87 -74 94 -151 3 -34 8 -206 11 -382 2 -176 12
-486 20 -690 36 -913 45 -1155 56 -1540 6 -225 9 -597 7 -826 -5 -399 -6 -418
-26 -460 -55 -114 -214 -142 -309 -55 -30 27 -37 42 -44 92 -5 32 -6 84 -3
115 6 53 5 56 -17 62 -13 4 -94 7 -179 7 -186 0 -493 31 -609 61 -151 38 -319
127 -406 215 -85 85 -199 298 -236 443 -23 91 -25 231 -4 332 52 248 230 472
534 673 289 192 559 301 775 313 l109 6 -7 126 c-24 475 -48 1487 -36 1549 19
108 160 165 270 110z m5293 -32 c83 -35 111 -103 131 -316 32 -346 39 -582 33
-1184 -7 -694 -18 -928 -97 -1979 -28 -370 -30 -390 -55 -435 -37 -69 -84 -97
-159 -97 -52 0 -68 5 -107 32 -56 39 -79 84 -79 152 0 28 13 223 30 434 76
981 89 1242 97 1892 6 543 -2 800 -33 1155 -19 212 -16 241 28 287 65 68 141
89 211 59z m-4028 -997 c90 -25 175 -133 175 -224 0 -72 -19 -116 -74 -169
-62 -61 -162 -106 -234 -106 -135 1 -212 141 -167 306 30 110 133 196 245 203
8 0 33 -4 55 -10z m61 -798 c84 -38 113 -119 95 -264 -6 -50 -10 -213 -10
-362 2 -356 -12 -489 -112 -1020 -86 -462 -79 -439 -160 -481 -118 -59 -238
-8 -269 116 -13 54 -6 100 71 480 85 418 91 468 95 865 3 334 14 504 35 571
28 90 159 138 255 95z m2742 -47 c56 -23 91 -62 107 -119 8 -32 15 -131 19
-270 10 -404 54 -769 157 -1314 45 -237 45 -259 -8 -322 -74 -87 -233 -93
-292 -11 -24 35 -44 116 -96 407 -20 110 -38 201 -39 203 -2 1 -24 -26 -50
-61 -119 -168 -344 -315 -571 -373 -323 -82 -650 -10 -845 186 -152 152 -249
377 -294 683 -34 223 -47 740 -22 802 42 99 205 125 298 47 56 -47 59 -68 68
-402 8 -297 17 -380 55 -546 29 -128 98 -262 163 -320 147 -130 458 -135 666
-9 177 106 276 251 336 489 31 121 43 214 60 436 17 224 38 387 54 417 40 78
147 114 234 77z"/>
<path d="M3061 5519 c-139 -18 -288 -80 -502 -209 -252 -152 -368 -265 -425
-415 -26 -68 -24 -177 6 -275 30 -102 53 -144 113 -207 76 -81 189 -128 362
-152 85 -11 415 -31 528 -31 l67 0 -1 333 c-1 182 -6 474 -13 647 l-11 315
-30 1 c-16 1 -59 -2 -94 -7z"/>
</g>
</svg>
